<?xml version="1.0" encoding="utf-8"?>
<svg width="20px" height="20px" viewBox="0 0 20 20" version="1.1" xmlns:xlink="http://www.w3.org/1999/xlink" xmlns="http://www.w3.org/2000/svg">
  <defs>
    <path d="M0 0L20 0L20 20L0 20L0 0Z" id="path_1" />
    <clipPath id="mask_1">
      <use xlink:href="#path_1" />
    </clipPath>
  </defs>
  <g id="table">
    <path d="M0 0L20 0L20 20L0 20L0 0Z" id="Arrière-plan" fill="#FFFFFF" fill-opacity="0" fill-rule="evenodd" stroke="none" />
    <g clip-path="url(#mask_1)">
      <path d="M13.3333 8.33333L16.6667 8.33333L16.6667 11.6667L13.3333 11.6667L13.3333 8.33333Z" id="Rectangle-Copy-3" fill="#000000" fill-rule="evenodd" stroke="none" />
      <path d="M8.33333 13.3333L11.6667 13.3333L11.6667 16.6667L8.33333 16.6667L8.33333 13.3333Z" id="Rectangle-Copy-2" fill="#000000" fill-rule="evenodd" stroke="none" />
      <path d="M3.33333 8.33333L6.66667 8.33333L6.66667 11.6667L3.33333 11.6667L3.33333 8.33333Z" id="Rectangle-Copy" fill="#000000" fill-rule="evenodd" stroke="none" />
      <path d="M8.33333 3.33333L11.6667 3.33333L11.6667 6.66667L8.33333 6.66667L8.33333 3.33333Z" id="Rectangle" fill="#000000" fill-rule="evenodd" stroke="none" />
      <path d="M17.5 1.66667L2.5 1.66667C2.03976 1.66667 1.66667 2.03976 1.66667 2.5L1.66667 17.5C1.66667 17.9602 2.03976 18.3333 2.5 18.3333L17.5 18.3333C17.9602 18.3333 18.3333 17.9602 18.3333 17.5L18.3333 2.5C18.3333 2.03976 17.9602 1.66667 17.5 1.66667L17.5 1.66667ZM6.66667 16.6667L3.33333 16.6667L3.33333 13.3333L6.66667 13.3333L6.66667 16.6667ZM6.66667 11.6667L3.33333 11.6667L3.33333 8.33333L6.66667 8.33333L6.66667 11.6667ZM6.66667 6.66667L3.33333 6.66667L3.33333 3.33333L6.66667 3.33333L6.66667 6.66667ZM11.6667 16.6667L8.33333 16.6667L8.33333 13.3333L11.6667 13.3333L11.6667 16.6667ZM11.6667 11.6667L8.33333 11.6667L8.33333 8.33333L11.6667 8.33333L11.6667 11.6667ZM11.6667 6.66667L8.33333 6.66667L8.33333 3.33333L11.6667 3.33333L11.6667 6.66667ZM16.6667 16.6667L13.3333 16.6667L13.3333 13.3333L16.6667 13.3333L16.6667 16.6667ZM16.6667 11.6667L13.3333 11.6667L13.3333 8.33333L16.6667 8.33333L16.6667 11.6667ZM16.6667 6.66667L13.3333 6.66667L13.3333 3.33333L16.6667 3.33333L16.6667 6.66667Z" id="Forme" fill="#FFFFFF" fill-rule="evenodd" stroke="none" />
    </g>
  </g>
</svg>