<?xml version="1.0" encoding="utf-8"?>
<svg width="100px" height="100px" viewBox="0 0 100 100" version="1.1" xmlns:xlink="http://www.w3.org/1999/xlink" xmlns="http://www.w3.org/2000/svg">
  <defs>
    <path d="M0 0L100 0L100 100L0 100L0 0Z" id="path_1" />
    <clipPath id="mask_1">
      <use xlink:href="#path_1" />
    </clipPath>
  </defs>
  <g id="table">
    <path d="M0 0L100 0L100 100L0 100L0 0Z" id="Arrière-plan" fill="#FFFFFF" fill-opacity="0" fill-rule="evenodd" stroke="none" />
    <g clip-path="url(#mask_1)">
      <path d="M66.6667 41.6667L83.3333 41.6667L83.3333 58.3333L66.6667 58.3333L66.6667 41.6667Z" id="Rectangle-Copy-3" fill="#000000" fill-rule="evenodd" stroke="none" />
      <path d="M41.6667 66.6667L58.3333 66.6667L58.3333 83.3333L41.6667 83.3333L41.6667 66.6667Z" id="Rectangle-Copy-2" fill="#000000" fill-rule="evenodd" stroke="none" />
      <path d="M16.6667 41.6667L33.3333 41.6667L33.3333 58.3333L16.6667 58.3333L16.6667 41.6667Z" id="Rectangle-Copy" fill="#000000" fill-rule="evenodd" stroke="none" />
      <path d="M41.6667 16.6667L58.3333 16.6667L58.3333 33.3333L41.6667 33.3333L41.6667 16.6667Z" id="Rectangle" fill="#000000" fill-rule="evenodd" stroke="none" />
      <path d="M87.5 8.33333L12.5 8.33333C10.1988 8.33333 8.33333 10.1988 8.33333 12.5L8.33333 87.5C8.33333 89.8012 10.1988 91.6667 12.5 91.6667L87.5 91.6667C89.8012 91.6667 91.6667 89.8012 91.6667 87.5L91.6667 12.5C91.6667 10.1988 89.8012 8.33333 87.5 8.33333L87.5 8.33333ZM33.3333 83.3333L16.6667 83.3333L16.6667 66.6667L33.3333 66.6667L33.3333 83.3333ZM33.3333 58.3333L16.6667 58.3333L16.6667 41.6667L33.3333 41.6667L33.3333 58.3333ZM33.3333 33.3333L16.6667 33.3333L16.6667 16.6667L33.3333 16.6667L33.3333 33.3333ZM58.3333 83.3333L41.6667 83.3333L41.6667 66.6667L58.3333 66.6667L58.3333 83.3333ZM58.3333 58.3333L41.6667 58.3333L41.6667 41.6667L58.3333 41.6667L58.3333 58.3333ZM58.3333 33.3333L41.6667 33.3333L41.6667 16.6667L58.3333 16.6667L58.3333 33.3333ZM83.3333 83.3333L66.6667 83.3333L66.6667 66.6667L83.3333 66.6667L83.3333 83.3333ZM83.3333 58.3333L66.6667 58.3333L66.6667 41.6667L83.3333 41.6667L83.3333 58.3333ZM83.3333 33.3333L66.6667 33.3333L66.6667 16.6667L83.3333 16.6667L83.3333 33.3333Z" id="Forme" fill="#FFFFFF" fill-rule="evenodd" stroke="none" />
    </g>
  </g>
</svg>